<svg width="180" height="48" viewBox="0 0 180 48" fill="none" xmlns="http://www.w3.org/2000/svg">
<path d="M8.876 25.402C8.876 26.5873 8.57733 27.5067 7.98 28.16C7.38733 28.8133 6.419 29.14 5.075 29.14C3.71233 29.14 2.73933 28.8063 2.156 28.139C1.57267 27.4717 1.281 26.5197 1.281 25.283V18.878H2.828V25.472C2.828 26.2747 3.024 26.872 3.416 27.264C3.808 27.6513 4.361 27.845 5.075 27.845C5.78433 27.845 6.342 27.6513 6.748 27.264C7.154 26.8767 7.357 26.2793 7.357 25.472V18.878H8.876V25.402ZM10.9134 31.254V21.762H12.4114L12.4254 22.966C12.5468 22.7607 12.7101 22.5553 12.9154 22.35C13.1254 22.14 13.3821 21.9673 13.6854 21.832C13.9934 21.692 14.3528 21.622 14.7634 21.622C15.6174 21.622 16.3128 21.9207 16.8494 22.518C17.3908 23.1153 17.6614 24.0417 17.6614 25.297C17.6614 26.557 17.3884 27.5137 16.8424 28.167C16.2964 28.8157 15.5614 29.14 14.6374 29.14C14.2408 29.14 13.8954 29.07 13.6014 28.93C13.3121 28.7853 13.0694 28.6057 12.8734 28.391C12.6821 28.1763 12.5304 27.964 12.4184 27.754V31.254H10.9134ZM14.3224 27.999C14.8778 27.999 15.3328 27.7843 15.6874 27.355C16.0468 26.921 16.2264 26.2443 16.2264 25.325C16.2264 24.5363 16.0608 23.9133 15.7294 23.456C15.4028 22.994 14.9338 22.763 14.3224 22.763C13.6878 22.763 13.2094 23.0033 12.8874 23.484C12.5701 23.96 12.4114 24.5737 12.4114 25.325C12.4114 25.815 12.4814 26.263 12.6214 26.669C12.7661 27.0703 12.9808 27.3923 13.2654 27.635C13.5501 27.8777 13.9024 27.999 14.3224 27.999ZM26.2091 22.84H24.5851L24.5921 27.159C24.5921 27.5137 24.6504 27.733 24.7671 27.817C24.8838 27.8963 25.0961 27.936 25.4041 27.936H26.2511V28.909C26.1578 28.9463 26.0178 28.979 25.8311 29.007C25.6444 29.035 25.4088 29.049 25.1241 29.049C24.5874 29.049 24.1698 28.9767 23.8711 28.832C23.5771 28.6873 23.3718 28.4797 23.2551 28.209C23.1431 27.9337 23.0871 27.6023 23.0871 27.215V22.84H21.9111V21.762H23.1291L23.5001 19.634H24.5851V21.755H26.2091V22.84ZM30.7109 29.14C29.6935 29.14 28.8769 28.818 28.2609 28.174C27.6495 27.5253 27.3439 26.606 27.3439 25.416C27.3439 24.6553 27.4745 23.9927 27.7359 23.428C28.0019 22.8587 28.3869 22.4153 28.8909 22.098C29.3949 21.7807 30.0039 21.622 30.7179 21.622C31.7352 21.622 32.5472 21.9533 33.1539 22.616C33.7605 23.2787 34.0639 24.212 34.0639 25.416C34.0639 26.1487 33.9355 26.795 33.6789 27.355C33.4222 27.915 33.0442 28.3537 32.5449 28.671C32.0455 28.9837 31.4342 29.14 30.7109 29.14ZM30.7179 27.985C31.3339 27.985 31.7982 27.747 32.1109 27.271C32.4282 26.7903 32.5869 26.158 32.5869 25.374C32.5869 24.8933 32.5239 24.457 32.3979 24.065C32.2719 23.6683 32.0712 23.3533 31.7959 23.12C31.5252 22.8867 31.1659 22.77 30.7179 22.77C30.0925 22.77 29.6189 23.0057 29.2969 23.477C28.9795 23.9483 28.8209 24.5807 28.8209 25.374C28.8209 25.8453 28.8839 26.2793 29.0099 26.676C29.1359 27.0727 29.3365 27.39 29.6119 27.628C29.8919 27.866 30.2605 27.985 30.7179 27.985Z" fill="white"/>
<path d="M47.74 10.08H65.72L65.54 14.14H51.7L51.04 22.18C52.0667 21.46 53.1 20.94 54.14 20.62C55.18 20.3 56.3267 20.14 57.58 20.14C59.4067 20.14 61.0733 20.5 62.58 21.22C64.0867 21.94 65.2867 23 66.18 24.4C67.0867 25.8 67.54 27.5133 67.54 29.54C67.54 31.5667 67.0867 33.32 66.18 34.8C65.2867 36.28 64.02 37.4267 62.38 38.24C60.7533 39.04 58.8267 39.44 56.6 39.44C54.76 39.44 53.0467 39.14 51.46 38.54C49.8867 37.9267 48.5267 37.0867 47.38 36.02C46.2467 34.9533 45.4 33.7333 44.84 32.36L48.78 30.28C49.5267 31.7733 50.4867 33.0133 51.66 34C52.8467 34.9733 54.3467 35.46 56.16 35.46C58.04 35.46 59.5467 34.94 60.68 33.9C61.8267 32.8467 62.4 31.4467 62.4 29.7C62.4 28.62 62.1333 27.66 61.6 26.82C61.08 25.98 60.3667 25.3267 59.46 24.86C58.5533 24.38 57.5333 24.14 56.4 24.14C55.3733 24.14 54.4333 24.2867 53.58 24.58C52.74 24.86 51.8 25.4867 50.76 26.46C50.56 26.54 50.36 26.5333 50.16 26.44L46.42 24.92L47.74 10.08ZM81.3872 39.44C79.6805 39.44 78.0872 39.1133 76.6072 38.46C75.1405 37.8067 73.9272 36.88 72.9672 35.68C72.0072 34.48 71.4472 33.0667 71.2872 31.44H75.9472C76.2272 32.6533 76.8272 33.64 77.7472 34.4C78.6805 35.1467 79.8339 35.52 81.2072 35.52C82.7405 35.52 84.0672 35.14 85.1872 34.38C86.3205 33.62 87.1672 32.4267 87.7272 30.8C88.2872 29.1733 88.4939 27.06 88.3472 24.46C87.8139 25.74 86.9139 26.7733 85.6472 27.56C84.3939 28.3333 82.9139 28.72 81.2072 28.72C79.2739 28.72 77.5605 28.3533 76.0672 27.62C74.5872 26.8733 73.4272 25.8133 72.5872 24.44C71.7472 23.0533 71.3272 21.4133 71.3272 19.52C71.3272 17.6 71.7539 15.9 72.6072 14.42C73.4739 12.94 74.6872 11.78 76.2472 10.94C77.8205 10.1 79.6672 9.68 81.7872 9.68C84.1472 9.68 86.1805 10.26 87.8872 11.42C89.6072 12.58 90.9339 14.2333 91.8672 16.38C92.8005 18.5267 93.2672 21.0733 93.2672 24.02C93.2672 29.0467 92.2205 32.8733 90.1272 35.5C88.0472 38.1267 85.1339 39.44 81.3872 39.44ZM81.9272 24.76C82.8605 24.76 83.7539 24.5467 84.6072 24.12C85.4605 23.6933 86.1605 23.14 86.7072 22.46C87.2539 21.78 87.5272 21.06 87.5272 20.3C87.5405 18.22 87.0272 16.56 85.9872 15.32C84.9605 14.08 83.6005 13.46 81.9072 13.46C80.3605 13.46 79.0872 14 78.0872 15.08C77.0872 16.16 76.5872 17.56 76.5872 19.28C76.5872 20.9867 77.0605 22.3267 78.0072 23.3C78.9539 24.2733 80.2605 24.76 81.9272 24.76ZM104.17 9.64C105.504 9.64 106.704 10 107.77 10.72C108.837 11.4267 109.677 12.4 110.29 13.64C110.904 14.88 111.21 16.3067 111.21 17.92C111.21 19.52 110.904 20.9333 110.29 22.16C109.69 23.3867 108.857 24.3533 107.79 25.06C106.724 25.7533 105.517 26.1 104.17 26.1C102.81 26.1 101.59 25.7533 100.51 25.06C99.4436 24.3533 98.597 23.3867 97.9703 22.16C97.357 20.9333 97.0503 19.52 97.0503 17.92C97.0503 16.3067 97.3636 14.88 97.9903 13.64C98.617 12.4 99.4636 11.4267 100.53 10.72C101.61 10 102.824 9.64 104.17 9.64ZM124.41 9.76L104.97 39.16L101.95 39.12L121.47 9.76H124.41ZM104.13 23.52C105.277 23.52 106.137 23.02 106.71 22.02C107.284 21.0067 107.57 19.64 107.57 17.92C107.57 16.1733 107.277 14.78 106.69 13.74C106.104 12.7 105.25 12.18 104.13 12.18C102.997 12.18 102.137 12.7067 101.55 13.76C100.964 14.8 100.67 16.1867 100.67 17.92C100.67 19.6267 100.964 20.9867 101.55 22C102.137 23.0133 102.997 23.52 104.13 23.52ZM122.75 22.9C124.097 22.9 125.304 23.26 126.37 23.98C127.437 24.7 128.277 25.6867 128.89 26.94C129.504 28.18 129.81 29.5933 129.81 31.18C129.81 32.7933 129.504 34.22 128.89 35.46C128.277 36.6867 127.437 37.6533 126.37 38.36C125.317 39.0533 124.11 39.4 122.75 39.4C121.39 39.4 120.17 39.0533 119.09 38.36C118.024 37.6533 117.177 36.6867 116.55 35.46C115.937 34.22 115.63 32.7933 115.63 31.18C115.63 29.5933 115.944 28.18 116.57 26.94C117.197 25.6867 118.044 24.7 119.11 23.98C120.19 23.26 121.404 22.9 122.75 22.9ZM122.71 36.8C123.83 36.8 124.684 36.2933 125.27 35.28C125.857 34.2533 126.15 32.9 126.15 31.22C126.15 29.5 125.85 28.1133 125.25 27.06C124.65 26.0067 123.804 25.48 122.71 25.48C121.604 25.48 120.75 26.0133 120.15 27.08C119.564 28.1467 119.27 29.5267 119.27 31.22C119.27 32.9 119.564 34.2533 120.15 35.28C120.75 36.2933 121.604 36.8 122.71 36.8Z" fill="#EBC80C"/>
<path d="M147.51 31.2C146.177 31.2 145.023 30.9067 144.05 30.32C143.083 29.7333 142.333 28.89 141.8 27.79C141.273 26.6833 141.01 25.3533 141.01 23.8C141.01 22.24 141.277 20.9033 141.81 19.79C142.343 18.6767 143.097 17.8233 144.07 17.23C145.043 16.6367 146.19 16.34 147.51 16.34C148.823 16.34 149.96 16.6367 150.92 17.23C151.887 17.8233 152.633 18.6767 153.16 19.79C153.687 20.9033 153.95 22.24 153.95 23.8C153.95 25.3467 153.69 26.6733 153.17 27.78C152.65 28.88 151.907 29.7267 150.94 30.32C149.973 30.9067 148.83 31.2 147.51 31.2ZM147.51 29.16C148.697 29.16 149.623 28.74 150.29 27.9C150.963 27.0533 151.3 25.6967 151.3 23.83C151.3 21.93 150.96 20.5467 150.28 19.68C149.607 18.8133 148.683 18.38 147.51 18.38C146.337 18.38 145.403 18.8167 144.71 19.69C144.023 20.5567 143.68 21.9367 143.68 23.83C143.68 25.7033 144.023 27.06 144.71 27.9C145.403 28.74 146.337 29.16 147.51 29.16ZM156.711 16.54H166.171L166.161 18.6H159.181V22.76H165.341V24.79H159.181V31H156.711V16.54ZM168.801 16.54H178.261L178.251 18.6H171.271V22.76H177.431V24.79H171.271V31H168.801V16.54Z" fill="white"/>
</svg>
