<svg width="16" height="16" viewBox="0 0 16 16" fill="none" xmlns="http://www.w3.org/2000/svg">
<g clip-path="url(#clip0_1003_5033)">
<path d="M8 16C12.4183 16 16 12.4183 16 8C16 3.58172 12.4183 0 8 0C3.58172 0 0 3.58172 0 8C0 12.4183 3.58172 16 8 16Z" fill="white"/>
<path d="M13.3362 7.99915C13.3378 8.10875 13.3242 8.21815 13.2954 8.32395C13.2666 8.42975 13.223 8.53116 13.1658 8.62476C13.1088 8.71836 13.0388 8.80356 12.958 8.87776C12.8772 8.95196 12.7864 9.01436 12.6882 9.06316C12.6904 9.09236 12.6922 9.12176 12.6932 9.15116C12.6956 9.20981 12.6956 9.26852 12.6932 9.32716C12.6922 9.35656 12.6904 9.38596 12.6882 9.41516C12.6882 11.2072 10.6002 12.6632 8.02417 12.6632C5.44814 12.6632 3.36013 11.2072 3.36013 9.41516C3.35793 9.38596 3.35613 9.35656 3.35513 9.32716C3.35272 9.26852 3.35272 9.20981 3.35513 9.15116C3.35613 9.12176 3.35793 9.09236 3.36013 9.06316C3.20628 8.99244 3.06963 8.88914 2.95964 8.7604C2.84965 8.63166 2.76895 8.48056 2.72312 8.31755C2.67737 8.15448 2.66762 7.9834 2.69456 7.81618C2.72149 7.64896 2.78447 7.4896 2.87912 7.34914C2.97369 7.20871 3.09768 7.09053 3.24249 7.00281C3.3873 6.91508 3.54947 6.85992 3.71773 6.84114C3.88601 6.82228 4.05639 6.84023 4.21704 6.89376C4.3777 6.94729 4.5248 7.03511 4.64814 7.15114C4.87711 6.99595 5.117 6.85752 5.36594 6.73694C5.61495 6.61654 5.87235 6.51414 6.13615 6.43093C6.39995 6.34773 6.66955 6.28393 6.94256 6.23973C7.21556 6.19553 7.49156 6.17133 7.76816 6.16713L8.36017 3.3911C8.36677 3.3589 8.37977 3.3285 8.39837 3.3013C8.41677 3.2743 8.44057 3.2511 8.46797 3.2333C8.49557 3.2155 8.52637 3.2033 8.55877 3.1973C8.59097 3.1915 8.62417 3.1921 8.65617 3.1991L10.6162 3.59111C10.814 3.2513 11.2292 3.1057 11.5958 3.2473C11.9624 3.3889 12.172 3.77591 12.09 4.16031C12.0082 4.54472 11.659 4.81272 11.2666 4.79252C10.874 4.77232 10.5542 4.46991 10.5122 4.07911L8.80017 3.71911L8.28017 6.21513C8.55337 6.22093 8.82597 6.24653 9.09558 6.29153C9.63547 6.38153 10.1595 6.54899 10.6516 6.78874C10.8973 6.90834 11.1342 7.0455 11.3602 7.19914C11.5227 7.0431 11.7269 6.93745 11.9482 6.89494C12.1695 6.85228 12.3983 6.87458 12.6072 6.95914C12.8161 7.04366 12.9961 7.18682 13.1254 7.37134C13.2548 7.55588 13.328 7.77392 13.3362 7.99915ZM5.39694 9.10536C5.43734 9.20236 5.49614 9.29056 5.57054 9.36476C5.64475 9.43917 5.73295 9.49797 5.82995 9.53837C5.92704 9.57852 6.03108 9.59918 6.13615 9.59917C6.45975 9.59917 6.75136 9.40416 6.87536 9.10536C6.99916 8.80636 6.93056 8.46236 6.70176 8.23355C6.47295 8.00475 6.12895 7.93615 5.82995 8.05995C5.53114 8.18395 5.33614 8.47556 5.33614 8.79916C5.33614 8.90416 5.35674 9.00816 5.39694 9.10536ZM9.97898 11.0258C10.02 10.9858 10.0434 10.9312 10.0442 10.874C10.045 10.8166 10.0228 10.7614 9.98278 10.7204C9.94278 10.6794 9.88818 10.656 9.83098 10.6552C9.77358 10.6544 9.71838 10.6766 9.67218 10.7112C9.55189 10.7975 9.42449 10.8734 9.29138 10.9382C9.15825 11.003 9.01989 11.0564 8.87777 11.098C8.73577 11.1394 8.59037 11.1688 8.44337 11.1858C8.29617 11.2028 8.14797 11.2072 8.00017 11.1992C7.85257 11.2058 7.70456 11.1998 7.55796 11.1814C7.41133 11.1632 7.26653 11.1324 7.12516 11.0894C6.98356 11.0466 6.84616 10.9918 6.71396 10.9258C6.58175 10.8598 6.45535 10.7826 6.33615 10.6952C6.29475 10.6612 6.24215 10.6438 6.18855 10.6464C6.13495 10.649 6.08435 10.6716 6.04635 10.7094C6.00855 10.7474 5.98595 10.798 5.98335 10.8516C5.98075 10.9052 5.99815 10.9578 6.03215 10.9992C6.17275 11.1052 6.32215 11.1988 6.47875 11.2792C6.63535 11.3596 6.79876 11.4262 6.96676 11.4786C7.13476 11.531 7.30696 11.5688 7.48156 11.5918C7.65616 11.6146 7.83237 11.6224 8.00817 11.6152C8.18397 11.6224 8.36017 11.6146 8.53477 11.5918C8.88448 11.5458 9.22368 11.4401 9.53758 11.2792C9.69418 11.1988 9.84358 11.1052 9.98418 10.9992L9.97898 11.0258ZM9.83218 9.66317C9.94058 9.66437 10.0482 9.64337 10.1484 9.60177C10.2486 9.55997 10.3392 9.49837 10.4148 9.42057C10.4904 9.34276 10.5492 9.25036 10.588 9.14896C10.6268 9.04768 10.6446 8.93954 10.6402 8.83116C10.6402 8.50756 10.4452 8.21595 10.1464 8.09195C9.84738 7.96815 9.50338 8.03675 9.27458 8.26555C9.04578 8.49436 8.97718 8.83836 9.10098 9.13736C9.22498 9.43617 9.51658 9.63117 9.84018 9.63117L9.83218 9.66317Z" fill="#1B6392"/>
</g>
<defs>
<clipPath id="clip0_1003_5033">
<rect width="16" height="16" fill="white"/>
</clipPath>
</defs>
</svg>
