<svg width="76" height="44" viewBox="0 0 76 44" fill="none" xmlns="http://www.w3.org/2000/svg">
<rect width="74" height="40" transform="translate(0 3.87305) rotate(-3)" fill="#F3DE6D"/>
<path d="M13.1474 30.2214L12.3907 15.7812L17.3538 15.5211C19.1847 15.4252 20.5699 15.6797 21.5095 16.2847C22.4554 16.8827 22.9603 17.7908 23.0242 19.0092C23.0629 19.7481 22.9067 20.3972 22.5554 20.9564C22.2042 21.5155 21.559 22.0066 20.6199 22.4297C21.4086 22.5753 22.0222 22.8201 22.4609 23.1643C22.9058 23.5015 23.2202 23.8956 23.404 24.3466C23.5945 24.7972 23.7027 25.2689 23.7285 25.7615C23.7976 27.0797 23.3895 28.0825 22.5043 28.7697C21.6257 29.4567 20.2277 29.8504 18.3104 29.9509L13.1474 30.2214ZM15.1397 21.8056L18.0857 21.6512C18.5317 21.6279 18.9577 21.5388 19.3634 21.384C19.7759 21.2289 20.1074 20.9945 20.358 20.681C20.6083 20.3608 20.7201 19.9477 20.6936 19.4417C20.6559 18.7227 20.3514 18.1979 19.78 17.8674C19.2152 17.5365 18.5034 17.3935 17.6446 17.4385L14.9183 17.5814L15.1397 21.8056ZM15.4726 28.1569L18.2388 28.0119C19.2574 27.9586 20.0234 27.7348 20.5368 27.3408C21.0499 26.94 21.2881 26.3901 21.2514 25.6911C21.2117 24.9321 20.8994 24.3877 20.3147 24.0579C19.7296 23.7214 19.021 23.5749 18.1888 23.6185L15.2428 23.7729L15.4726 28.1569ZM29.2978 29.5252C28.4057 29.572 27.7393 29.4667 27.2986 29.2094C26.8641 28.9451 26.5718 28.59 26.4216 28.1439C26.278 27.6974 26.1935 27.2312 26.168 26.7452L25.5363 14.6918L27.9131 14.5672L28.5301 26.341C28.5535 26.7871 28.6615 27.1286 28.8542 27.3655C29.0535 27.602 29.3606 27.7295 29.7755 27.7478L30.2958 27.7406L30.3759 29.2685C30.1992 29.3378 30.0153 29.3942 29.824 29.4376C29.6396 29.4873 29.4643 29.5165 29.2978 29.5252ZM35.3944 29.2558C34.4024 29.3078 33.5663 29.0846 32.8859 28.5862C32.2052 28.0811 31.8392 27.3392 31.788 26.3606C31.7283 25.2221 32.0927 24.3419 32.8812 23.7197C33.6764 23.0973 34.9754 22.7254 36.7782 22.6043L38.314 22.4837L38.2774 21.7847C38.2488 21.2388 38.0633 20.8212 37.721 20.5321C37.3788 20.2429 36.8714 20.116 36.199 20.1512C35.6934 20.1844 35.2403 20.3283 34.8398 20.5829C34.4392 20.8376 34.1863 21.2347 34.0811 21.7743L32.0139 21.8826C32.0117 20.8213 32.3927 20.0035 33.1571 19.4294C33.9277 18.8483 34.9488 18.5244 36.2204 18.4578C37.6917 18.3807 38.7755 18.6143 39.4716 19.1586C40.174 19.6959 40.5524 20.4838 40.6068 21.5224L40.9863 28.7625L38.9391 28.8697L38.652 27.0222C38.3133 27.8211 37.8689 28.3851 37.3187 28.7143C36.7682 29.0369 36.1267 29.2174 35.3944 29.2558ZM36.097 27.5667C36.4964 27.5458 36.881 27.4322 37.2507 27.2259C37.6201 27.0129 37.9201 26.7502 38.1507 26.4377C38.3813 26.1252 38.4878 25.7992 38.47 25.4596L38.3847 23.8319L37.1174 23.9183C36.1794 23.9808 35.4316 24.1702 34.8741 24.4865C34.3166 24.8028 34.0558 25.3038 34.0917 25.9895C34.1193 26.5154 34.324 26.9186 34.7058 27.199C35.0874 27.4727 35.5511 27.5953 36.097 27.5667ZM47.5616 17.8634C48.3671 17.8212 49.0847 17.9471 49.7143 18.2412C50.3435 18.5287 50.8561 18.9458 51.2519 19.4925C51.654 20.0322 51.9106 20.6596 52.0215 21.3748L49.9443 21.4837C49.8467 21.0215 49.6048 20.6102 49.2188 20.2499C48.839 19.8826 48.3229 19.7161 47.6705 19.7503C46.8982 19.7908 46.2843 20.1133 45.8286 20.718C45.3793 21.3157 45.1855 22.2037 45.2472 23.3821C45.3045 24.4739 45.5797 25.3307 46.0729 25.9524C46.5661 26.5741 47.2388 26.8626 48.091 26.818C48.517 26.7956 48.875 26.6834 49.1648 26.4813C49.4609 26.2722 49.6882 26.0233 49.8467 25.7346C50.0114 25.4389 50.1129 25.1465 50.1512 24.8575L52.1684 24.7517C52.1388 25.4609 51.9519 26.0982 51.6077 26.6637C51.2698 27.2221 50.8028 27.6739 50.2067 28.0189C49.6103 28.3572 48.9159 28.5472 48.1237 28.5887C47.1783 28.6382 46.3253 28.476 45.5647 28.1019C44.8104 27.7209 44.2028 27.1452 43.7418 26.375C43.2805 25.5981 43.0204 24.647 42.9614 23.5219C42.9052 22.45 43.0524 21.501 43.403 20.6749C43.7533 19.8421 44.2793 19.1803 44.9813 18.6896C45.6895 18.1918 46.5496 17.9164 47.5616 17.8634ZM64.1719 27.5473L61.7053 27.6766L58.4588 23.0502L56.8732 24.8957L57.0317 27.9216L54.6151 28.0482L53.8374 13.2086L56.254 13.0819L56.736 22.2793L60.7747 17.3712L63.4411 17.2315L59.9176 21.4617L64.1719 27.5473Z" fill="#191C1F"/>
</svg>
