<svg width="40" height="40" viewBox="0 0 40 40" fill="none" xmlns="http://www.w3.org/2000/svg">
<path d="M35 27.7023V12.2961C34.9988 12.0736 34.939 11.8553 34.8265 11.6632C34.714 11.4712 34.5529 11.3122 34.3594 11.2023L20.6094 3.46797C20.4241 3.361 20.2139 3.30469 20 3.30469C19.7861 3.30469 19.5759 3.361 19.3906 3.46797L5.64062 11.2023C5.44711 11.3122 5.28599 11.4712 5.17352 11.6632C5.06105 11.8553 5.0012 12.0736 5 12.2961V27.7023C5.0012 27.9249 5.06105 28.1432 5.17352 28.3352C5.28599 28.5272 5.44711 28.6862 5.64062 28.7961L19.3906 36.5305C19.5759 36.6374 19.7861 36.6938 20 36.6938C20.2139 36.6938 20.4241 36.6374 20.6094 36.5305L34.3594 28.7961C34.5529 28.6862 34.714 28.5272 34.8265 28.3352C34.939 28.1432 34.9988 27.9249 35 27.7023V27.7023Z" stroke="#191C1F" stroke-width="1.5" stroke-linecap="round" stroke-linejoin="round"/>
<path d="M27.6562 23.8281V15.7031L12.5 7.34375" stroke="#191C1F" stroke-width="1.5" stroke-linecap="round" stroke-linejoin="round"/>
<path d="M34.8281 11.6562L20.1406 20L5.17188 11.6562" stroke="#191C1F" stroke-width="1.5" stroke-linecap="round" stroke-linejoin="round"/>
<path d="M20.1406 20L20 36.6875" stroke="#191C1F" stroke-width="1.5" stroke-linecap="round" stroke-linejoin="round"/>
</svg>
