<svg width="40" height="40" viewBox="0 0 40 40" fill="none" xmlns="http://www.w3.org/2000/svg">
<path d="M35.2344 21.2505H30.2344C29.5713 21.2505 28.9354 21.5139 28.4666 21.9828C27.9978 22.4516 27.7344 23.0875 27.7344 23.7505V30.0005C27.7344 30.6636 27.9978 31.2994 28.4666 31.7683C28.9354 32.2371 29.5713 32.5005 30.2344 32.5005H32.7344C33.3974 32.5005 34.0333 32.2371 34.5021 31.7683C34.971 31.2994 35.2344 30.6636 35.2344 30.0005V21.2505ZM35.2344 21.2505C35.2344 19.2701 34.8424 17.3093 34.0807 15.4813C33.3191 13.6532 32.203 11.994 30.7969 10.5995C29.3907 9.20495 27.7224 8.10268 25.888 7.35625C24.0537 6.60982 22.0897 6.23402 20.1094 6.25052C18.1304 6.23609 16.1681 6.61342 14.3355 7.36078C12.503 8.10814 10.8365 9.21074 9.432 10.6051C8.02751 11.9994 6.91283 13.6578 6.15218 15.4849C5.39153 17.3119 4.99995 19.2715 5 21.2505V30.0005C5 30.6636 5.26339 31.2994 5.73223 31.7683C6.20107 32.2371 6.83696 32.5005 7.5 32.5005H10C10.663 32.5005 11.2989 32.2371 11.7678 31.7683C12.2366 31.2994 12.5 30.6636 12.5 30.0005V23.7505C12.5 23.0875 12.2366 22.4516 11.7678 21.9828C11.2989 21.5139 10.663 21.2505 10 21.2505H5" stroke="#191C1F" stroke-width="1.5" stroke-linecap="round" stroke-linejoin="round"/>
</svg>
