<svg width="16" height="16" viewBox="0 0 16 16" fill="none" xmlns="http://www.w3.org/2000/svg">
<g clip-path="url(#clip0_1003_5039)">
<path d="M5.60136 8.00078C5.60136 6.67535 6.67558 5.60059 8.00107 5.60059C9.32656 5.60059 10.4014 6.67535 10.4014 8.00078C10.4014 9.32621 9.32656 10.401 8.00107 10.401C6.67558 10.401 5.60136 9.32621 5.60136 8.00078ZM4.30381 8.00078C4.30381 10.0427 5.95907 11.6979 8.00107 11.6979C10.0431 11.6979 11.6983 10.0427 11.6983 8.00078C11.6983 5.95886 10.0431 4.30367 8.00107 4.30367C5.95907 4.30367 4.30387 5.95875 4.30387 8.00078H4.30381ZM10.9807 4.15708C10.9807 4.32796 11.0313 4.49502 11.1261 4.63715C11.221 4.77927 11.3559 4.89006 11.5138 4.95552C11.6716 5.02098 11.8454 5.03816 12.013 5.00489C12.1806 4.97162 12.3346 4.88939 12.4555 4.76861C12.5764 4.64782 12.6587 4.4939 12.6921 4.32632C12.7255 4.15873 12.7085 3.985 12.6432 3.8271C12.5778 3.6692 12.4671 3.53422 12.3251 3.43922C12.183 3.34423 12.016 3.29349 11.8451 3.29342H11.8448C11.6157 3.29353 11.396 3.38454 11.234 3.54648C11.072 3.70841 10.9809 3.92802 10.9807 4.15708ZM5.09215 13.8615C4.39015 13.8295 4.0086 13.7126 3.75503 13.6138C3.41886 13.4829 3.17901 13.3271 2.92682 13.0752C2.67464 12.8234 2.51854 12.5838 2.38824 12.2476C2.2894 11.9942 2.17246 11.6125 2.14055 10.9106C2.10565 10.1516 2.09868 9.92364 2.09868 8.0009C2.09868 6.07815 2.10622 5.8508 2.14055 5.09123C2.17252 4.38926 2.29032 4.00835 2.38824 3.75416C2.51912 3.41801 2.67499 3.17816 2.92682 2.92599C3.17866 2.67382 3.41829 2.51772 3.75503 2.38743C4.00848 2.28859 4.39015 2.17166 5.09215 2.13975C5.85112 2.10485 6.07911 2.09788 8.00107 2.09788C9.92303 2.09788 10.1512 2.10531 10.9108 2.13987C11.6128 2.17183 11.9938 2.28963 12.248 2.38755C12.5841 2.51784 12.824 2.67428 13.0762 2.92611C13.3284 3.17793 13.4839 3.41813 13.6148 3.75428C13.7136 4.00772 13.8305 4.38938 13.8624 5.09135C13.8974 5.85092 13.9043 6.07827 13.9043 8.00101C13.9043 9.92376 13.8974 10.1511 13.8624 10.9107C13.8305 11.6126 13.713 11.9942 13.6148 12.2477C13.4839 12.5839 13.328 12.8237 13.0762 13.0753C12.8243 13.3269 12.5841 13.483 12.248 13.6139C11.9945 13.7127 11.6128 13.8297 10.9108 13.8616C10.1519 13.8965 9.92389 13.9035 8.00107 13.9035C6.07825 13.9035 5.85089 13.8965 5.09215 13.8616V13.8615ZM5.03253 0.844384C4.26602 0.87929 3.74224 1.00083 3.28482 1.17881C2.81139 1.36261 2.41007 1.6092 2.00933 2.00929C1.6086 2.40938 1.36263 2.81073 1.17883 3.28472C1.00083 3.74241 0.879293 4.26588 0.844386 5.03237C0.808903 5.80006 0.800781 6.04549 0.800781 8.00078C0.800781 9.95607 0.808903 10.2015 0.844386 10.9692C0.879293 11.7357 1.00083 12.2591 1.17883 12.7168C1.36263 13.1903 1.60865 13.5924 2.00933 13.9923C2.41002 14.3922 2.81081 14.6384 3.28482 14.8228C3.74311 15.0007 4.26602 15.1223 5.03253 15.1572C5.80066 15.1921 6.0457 15.2008 8.00107 15.2008C9.95644 15.2008 10.2019 15.1927 10.9696 15.1572C11.7362 15.1223 12.2596 15.0007 12.7173 14.8228C13.1907 14.6384 13.5921 14.3924 13.9928 13.9923C14.3935 13.5922 14.639 13.1903 14.8233 12.7168C15.0013 12.2591 15.1234 11.7357 15.1578 10.9692C15.1927 10.2009 15.2008 9.95607 15.2008 8.00078C15.2008 6.04549 15.1927 5.80006 15.1578 5.03237C15.1228 4.26582 15.0013 3.74213 14.8233 3.28472C14.639 2.81131 14.3929 2.41001 13.9928 2.00929C13.5927 1.60856 13.1907 1.36261 12.7179 1.17881C12.2596 1.00083 11.7361 0.878714 10.9702 0.844384C10.2023 0.809306 9.95701 0.800781 8.00193 0.800781C6.04685 0.800781 5.80095 0.808903 5.03282 0.844384" fill="white"/>
</g>
<defs>
<clipPath id="clip0_1003_5039">
<rect width="16" height="16" fill="white"/>
</clipPath>
</defs>
</svg>
