<svg width="16" height="14" viewBox="0 0 16 14" fill="none" xmlns="http://www.w3.org/2000/svg">
<path d="M5.03184 13.0112C11.0699 13.0112 14.3718 8.00592 14.3718 3.66552C14.3718 3.52337 14.3689 3.38187 14.3625 3.24096C15.005 2.77578 15.5595 2.19982 16 1.54007C15.4118 1.80173 14.7789 1.97783 14.1149 2.05723C14.7926 1.6506 15.3129 1.00729 15.5584 0.24048C14.914 0.622975 14.2091 0.892613 13.4739 1.03777C12.8749 0.399314 12.0221 0 11.0778 0C9.26494 0 7.79489 1.47098 7.79489 3.28419C7.79489 3.54197 7.82374 3.79264 7.88006 4.03315C5.15177 3.89578 2.73252 2.58874 1.11343 0.601313C0.821818 1.10258 0.668434 1.67228 0.668943 2.25224C0.668943 3.39183 1.24846 4.39782 2.12976 4.98638C1.60846 4.97045 1.0986 4.82956 0.643057 4.57555C0.642569 4.58934 0.642569 4.60278 0.642569 4.61751C0.642569 6.20823 1.77408 7.53638 3.27613 7.83733C2.99402 7.9142 2.70292 7.95307 2.41054 7.9529C2.19938 7.9529 1.99359 7.93212 1.79359 7.8937C2.21151 9.19879 3.42335 10.1485 4.86013 10.1751C3.73659 11.0562 2.32127 11.581 0.783024 11.581C0.521349 11.5813 0.259888 11.5661 0 11.5355C1.45281 12.4673 3.17789 13.011 5.032 13.011" fill="white"/>
</svg>
