<svg width="226" height="24" viewBox="0 0 226 24" fill="none" xmlns="http://www.w3.org/2000/svg">
<path d="M9.2482 23.7438C6.99754 23.7438 5.19487 23.3705 3.8402 22.6238C2.48554 21.8665 1.5042 20.7945 0.896203 19.4078C0.29887 18.0212 0.000203133 16.3678 0.000203133 14.4478V0.287827H4.7522V14.7998C4.7522 16.5278 5.1682 17.7918 6.0002 18.5918C6.8322 19.3812 7.91487 19.7758 9.2482 19.7758C10.1335 19.7758 10.9175 19.6052 11.6002 19.2638C12.2829 18.9118 12.8162 18.3732 13.2002 17.6478C13.5949 16.9118 13.7922 15.9625 13.7922 14.7998V0.287827H18.5122V14.6078C18.5122 16.4745 18.2082 18.0958 17.6002 19.4718C16.9922 20.8372 16.0055 21.8932 14.6402 22.6398C13.2855 23.3758 11.4882 23.7438 9.2482 23.7438ZM22.5165 23.4238V0.287827H27.1405L37.7005 15.5998V0.287827H42.3725V23.4238H38.1645L27.1725 7.50383V23.4238H22.5165ZM46.9077 23.4238V0.287827H51.5637V23.4238H46.9077ZM61.1195 23.4238V4.44783H54.1275V0.287827H72.6395V4.44783H65.8075V23.4238H61.1195ZM75.1902 23.4238V0.287827H91.0782L91.0622 4.22383H79.8782V9.83983H89.5902V13.6958H79.8462V19.4398L91.2382 19.4558V23.4238H75.1902ZM94.9565 23.4238V0.287827C95.0738 0.287827 95.3991 0.287827 95.9325 0.287827C96.4765 0.287827 97.1111 0.287827 97.8365 0.287827C98.5725 0.287827 99.3031 0.29316 100.028 0.303827C100.764 0.303827 101.378 0.30916 101.868 0.319826C104.674 0.383827 106.962 0.88516 108.732 1.82383C110.503 2.76249 111.799 4.07449 112.62 5.75983C113.452 7.44516 113.868 9.43983 113.868 11.7438C113.868 14.1438 113.431 16.2185 112.556 17.9678C111.682 19.7065 110.343 21.0505 108.54 21.9998C106.748 22.9492 104.471 23.4238 101.708 23.4238H94.9565ZM99.6605 19.6478H101.804C103.127 19.6478 104.327 19.3918 105.404 18.8798C106.492 18.3678 107.362 17.5305 108.012 16.3678C108.663 15.2052 108.988 13.6532 108.988 11.7118C108.988 9.90916 108.7 8.44783 108.124 7.32783C107.548 6.19716 106.727 5.37049 105.66 4.84783C104.594 4.32516 103.33 4.06383 101.868 4.06383H99.6605V19.6478ZM123.926 23.4238V0.287827C124.044 0.287827 124.369 0.287827 124.902 0.287827C125.446 0.287827 126.081 0.287827 126.806 0.287827C127.542 0.287827 128.273 0.29316 128.998 0.303827C129.734 0.303827 130.348 0.30916 130.838 0.319826C133.644 0.383827 135.932 0.88516 137.702 1.82383C139.473 2.76249 140.769 4.07449 141.59 5.75983C142.422 7.44516 142.838 9.43983 142.838 11.7438C142.838 14.1438 142.401 16.2185 141.526 17.9678C140.652 19.7065 139.313 21.0505 137.51 21.9998C135.718 22.9492 133.441 23.4238 130.678 23.4238H123.926ZM128.63 19.6478H130.774C132.097 19.6478 133.297 19.3918 134.374 18.8798C135.462 18.3678 136.332 17.5305 136.982 16.3678C137.633 15.2052 137.958 13.6532 137.958 11.7118C137.958 9.90916 137.67 8.44783 137.094 7.32783C136.518 6.19716 135.697 5.37049 134.63 4.84783C133.564 4.32516 132.3 4.06383 130.838 4.06383H128.63V19.6478ZM146.318 23.4238V0.287827H162.206L162.19 4.22383H151.006V9.83983H160.718V13.6958H150.974V19.4398L162.366 19.4558V23.4238H146.318ZM164.372 23.4238L172.644 0.287827H177.588L185.86 23.4238H181.204L179.316 18.0638H170.98L169.06 23.4238H164.372ZM172.036 13.9838H178.18L175.124 4.78383L172.036 13.9838ZM188.694 23.4238V0.287827H193.398V19.4718H203.446V23.4238H188.694ZM216.07 23.7438C214.918 23.7438 213.792 23.5998 212.694 23.3118C211.595 23.0238 210.592 22.5918 209.686 22.0158C208.779 21.4398 208.032 20.7198 207.446 19.8558C206.87 18.9918 206.523 17.9785 206.406 16.8158H211.19C211.35 17.5198 211.654 18.1118 212.102 18.5918C212.56 19.0718 213.147 19.4398 213.862 19.6958C214.587 19.9518 215.414 20.0798 216.342 20.0798C217.078 20.0798 217.776 19.9732 218.438 19.7598C219.099 19.5465 219.638 19.2212 220.054 18.7838C220.47 18.3465 220.678 17.7972 220.678 17.1358C220.678 16.3465 220.39 15.7545 219.814 15.3598C219.238 14.9545 218.454 14.6345 217.462 14.3998L213.126 13.4558C211.899 13.1998 210.827 12.8052 209.91 12.2718C209.003 11.7278 208.304 11.0238 207.814 10.1598C207.323 9.28516 207.078 8.22383 207.078 6.97583C207.078 5.53583 207.472 4.29316 208.262 3.24783C209.062 2.20249 210.144 1.40249 211.51 0.847828C212.886 0.282494 214.427 -0.000173569 216.134 -0.000173569C218.064 -0.000173569 219.691 0.314493 221.014 0.943827C222.347 1.56249 223.366 2.40516 224.07 3.47183C224.774 4.52783 225.131 5.70649 225.142 7.00783H220.47C220.384 6.20783 220.139 5.56783 219.734 5.08783C219.328 4.59716 218.806 4.24516 218.166 4.03183C217.536 3.80783 216.816 3.69583 216.006 3.69583C214.608 3.69583 213.59 3.97849 212.95 4.54383C212.31 5.10916 211.99 5.76516 211.99 6.51183C211.99 7.21583 212.23 7.78649 212.71 8.22383C213.2 8.65049 213.984 8.97583 215.062 9.19983L219.078 10.0638C220.571 10.3518 221.782 10.8105 222.71 11.4398C223.638 12.0585 224.315 12.8105 224.742 13.6958C225.168 14.5812 225.382 15.5732 225.382 16.6718C225.382 18.0692 224.982 19.3012 224.182 20.3678C223.392 21.4238 222.299 22.2505 220.902 22.8478C219.504 23.4452 217.894 23.7438 216.07 23.7438Z" fill="white"/>
</svg>
